# xmcd
#
# Track frame offsets: 
#        150
#        13229
#        23095
#        36999
#        51170
#        68517
#        82926
#        99085
#        113684
#        127660
#        142046
#        156011
#        173356
#        187979
#        202056
#        216601
#        230393
#        244256
#        257938
#        270178
#        291554
#        305788
#
# Disc length: 4249 seconds
#
# Revision: 5
# Processed by: cddbd v1.5.2PL0 Copyright (c) Steve Scherf et al.
# Submitted via: ExactAudioCopyFreeDBPlugin 1.0
#
DISCID=33109716
DTITLE=Saxophonistes de Jazz - Trésors du saxophone CD 1
DYEAR=2003
DGENRE=Jazz
TTITLE0=Sidney Bechet - American rythm
TTITLE1=Benny Carter - When lights are low
TTITLE2=Coleman Hawkins - Body and soul
TTITLE3=Johnny Hodges - Perdido
TTITLE4=Lester Young - All of me
TTITLE5=Ben Webster - Cotton tail
TTITLE6=Don Byas - Sweet Lorraine
TTITLE7=Coleman Hawkins - Sophisticated lady
TTITLE8=Chu Berry - Shufflin' at The Holywood
TTITLE9=Sidney Bechet - Wabash blues
TTITLE10=Ben Webster - Cadillac Slim
TTITLE11=Johnny Hodges - Mood indigo
TTITLE12=Lester Young - Lester leaps in
TTITLE13=Benny Carter - Cocktails for two
TTITLE14=Sidney Bechet - Petite fleur
TTITLE15=Coleman Hawkins - His very own blues
TTITLE16=Lester Young - Beautiful eyes
TTITLE17=Charlie Barnet - Night an day
TTITLE18=Chu Berry - In the land of Yamo Yamo
TTITLE19=Bud Freeman - At sundown
TTITLE20=Johnny Hodges - Bean bag boogie
TTITLE21=Don Byas - April in Paris
EXTD=YEAR: 2003
EXTT0=
EXTT1=
EXTT2=
EXTT3=
EXTT4=
EXTT5=
EXTT6=
EXTT7=
EXTT8=
EXTT9=
EXTT10=
EXTT11=
EXTT12=
EXTT13=
EXTT14=
EXTT15=
EXTT16=
EXTT17=
EXTT18=
EXTT19=
EXTT20=
EXTT21=
PLAYORDER=
